<svg xmlns="http://www.w3.org/2000/svg" width="28" height="15"><rect id="backgroundrect" width="100%" height="100%" x="0" y="0" fill="none" stroke="none"/><title/><g class="currentLayer" style=""><title>Layer 1</title><g data-name="Layer 2" id="Layer_2" class=""><path d="M19.94000005722046,0.29579830169677734 a1,1 0 0 0 0,1.42 l4.6,4.6 H1.000000057220459 a1,1 0 1 0 0,2 H24.520000057220457 L19.94000005722046,12.885798301696777 A1,1 0 0 0 19.94000005722046,14.295798301696777 a1,1 0 0 0 1.4100000000000001,0 l6.36,-6.36 a0.8800000000000001,0.8800000000000001 0 0 0 0,-1.27 L21.36000005722046,0.29579830169677734 A1,1 0 0 0 19.94000005722046,0.29579830169677734 z" fill="#e78394" id="svg_1"/></g></g></svg>